<svg width="59" height="10" viewBox="0 0 59 10" fill="none" xmlns="http://www.w3.org/2000/svg">
<path d="M5.41927 0.372956C5.60267 0.00133288 6.1326 0.00133225 6.316 0.372955L7.51465 2.80169C7.58749 2.94926 7.72827 3.05155 7.89112 3.07521L10.5714 3.46468C10.9815 3.52427 11.1453 4.02825 10.8485 4.31752L8.90904 6.20803C8.79119 6.3229 8.73742 6.4884 8.76524 6.6506L9.22308 9.32003C9.29314 9.72849 8.86442 10.04 8.49761 9.84712L6.1003 8.58678C5.95464 8.51021 5.78062 8.51021 5.63496 8.58678L3.23766 9.84712C2.87085 10.04 2.44213 9.72849 2.51218 9.32003L2.97003 6.6506C2.99785 6.4884 2.94407 6.3229 2.82623 6.20803L0.88677 4.31752C0.590012 4.02826 0.753766 3.52427 1.16388 3.46468L3.84414 3.07521C4.007 3.05155 4.14778 2.94926 4.22061 2.80169L5.41927 0.372956ZM17.4193 0.372956C17.6027 0.00133288 18.1326 0.00133225 18.316 0.372955L19.5147 2.80169C19.5875 2.94926 19.7283 3.05155 19.8911 3.07521L22.5714 3.46468C22.9815 3.52427 23.1453 4.02825 22.8485 4.31752L20.909 6.20803C20.7912 6.3229 20.7374 6.4884 20.7652 6.6506L21.2231 9.32003C21.2931 9.72849 20.8644 10.04 20.4976 9.84712L18.1003 8.58678C17.9546 8.51021 17.7806 8.51021 17.635 8.58678L15.2377 9.84712C14.8708 10.04 14.4421 9.72849 14.5122 9.32003L14.97 6.6506C14.9978 6.4884 14.9441 6.3229 14.8262 6.20803L12.8868 4.31752C12.59 4.02826 12.7538 3.52427 13.1639 3.46468L15.8441 3.07521C16.007 3.05155 16.1478 2.94926 16.2206 2.80169L17.4193 0.372956ZM29.4193 0.372956C29.6027 0.00133288 30.1326 0.00133225 30.316 0.372955L31.5147 2.80169C31.5875 2.94926 31.7283 3.05155 31.8911 3.07521L34.5714 3.46468C34.9815 3.52427 35.1453 4.02825 34.8485 4.31752L32.909 6.20803C32.7912 6.3229 32.7374 6.4884 32.7652 6.6506L33.2231 9.32003C33.2931 9.72849 32.8644 10.04 32.4976 9.84712L30.1003 8.58678C29.9546 8.51021 29.7806 8.51021 29.635 8.58678L27.2377 9.84712C26.8708 10.04 26.4421 9.72849 26.5122 9.32003L26.97 6.6506C26.9978 6.4884 26.9441 6.3229 26.8262 6.20803L24.8868 4.31752C24.59 4.02826 24.7538 3.52427 25.1639 3.46468L27.8441 3.07521C28.007 3.05155 28.1478 2.94926 28.2206 2.80169L29.4193 0.372956ZM41.4193 0.372956C41.6027 0.00133288 42.1326 0.00133225 42.316 0.372955L43.5147 2.80169C43.5875 2.94926 43.7283 3.05155 43.8911 3.07521L46.5714 3.46468C46.9815 3.52427 47.1453 4.02825 46.8485 4.31752L44.909 6.20803C44.7912 6.3229 44.7374 6.4884 44.7652 6.6506L45.2231 9.32003C45.2931 9.72849 44.8644 10.04 44.4976 9.84712L42.1003 8.58678C41.9546 8.51021 41.7806 8.51021 41.635 8.58678L39.2377 9.84712C38.8708 10.04 38.4421 9.72849 38.5122 9.32003L38.97 6.6506C38.9978 6.4884 38.9441 6.3229 38.8262 6.20803L36.8868 4.31752C36.59 4.02826 36.7538 3.52427 37.1639 3.46468L39.8441 3.07521C40.007 3.05155 40.1478 2.94926 40.2206 2.80169L41.4193 0.372956ZM53.4193 0.372956C53.6027 0.00133288 54.1326 0.00133225 54.316 0.372955L55.5147 2.80169C55.5875 2.94926 55.7283 3.05155 55.8911 3.07521L58.5714 3.46468C58.9815 3.52427 59.1453 4.02825 58.8485 4.31752L56.909 6.20803C56.7912 6.3229 56.7374 6.4884 56.7652 6.6506L57.2231 9.32003C57.2931 9.72849 56.8644 10.04 56.4976 9.84712L54.1003 8.58678C53.9546 8.51021 53.7806 8.51021 53.635 8.58678L51.2377 9.84712C50.8708 10.04 50.4421 9.72849 50.5122 9.32003L50.97 6.6506C50.9978 6.4884 50.9441 6.3229 50.8262 6.20803L48.8868 4.31752C48.59 4.02826 48.7538 3.52427 49.1639 3.46468L51.8441 3.07521C52.007 3.05155 52.1478 2.94926 52.2206 2.80169L53.4193 0.372956Z" fill="#FFC700"/>
<path d="M5.41927 0.372956C5.60267 0.00133288 6.1326 0.00133225 6.316 0.372955L7.51465 2.80169C7.58749 2.94926 7.72827 3.05155 7.89112 3.07521L10.5714 3.46468C10.9815 3.52427 11.1453 4.02825 10.8485 4.31752L8.90904 6.20803C8.79119 6.3229 8.73742 6.4884 8.76524 6.6506L9.22308 9.32003C9.29314 9.72849 8.86442 10.04 8.49761 9.84712L6.1003 8.58678C5.95464 8.51021 5.78062 8.51021 5.63496 8.58678L3.23766 9.84712C2.87085 10.04 2.44213 9.72849 2.51218 9.32003L2.97003 6.6506C2.99785 6.4884 2.94407 6.3229 2.82623 6.20803L0.88677 4.31752C0.590012 4.02826 0.753766 3.52427 1.16388 3.46468L3.84414 3.07521C4.007 3.05155 4.14778 2.94926 4.22061 2.80169L5.41927 0.372956ZM17.4193 0.372956C17.6027 0.00133288 18.1326 0.00133225 18.316 0.372955L19.5147 2.80169C19.5875 2.94926 19.7283 3.05155 19.8911 3.07521L22.5714 3.46468C22.9815 3.52427 23.1453 4.02825 22.8485 4.31752L20.909 6.20803C20.7912 6.3229 20.7374 6.4884 20.7652 6.6506L21.2231 9.32003C21.2931 9.72849 20.8644 10.04 20.4976 9.84712L18.1003 8.58678C17.9546 8.51021 17.7806 8.51021 17.635 8.58678L15.2377 9.84712C14.8708 10.04 14.4421 9.72849 14.5122 9.32003L14.97 6.6506C14.9978 6.4884 14.9441 6.3229 14.8262 6.20803L12.8868 4.31752C12.59 4.02826 12.7538 3.52427 13.1639 3.46468L15.8441 3.07521C16.007 3.05155 16.1478 2.94926 16.2206 2.80169L17.4193 0.372956ZM29.4193 0.372956C29.6027 0.00133288 30.1326 0.00133225 30.316 0.372955L31.5147 2.80169C31.5875 2.94926 31.7283 3.05155 31.8911 3.07521L34.5714 3.46468C34.9815 3.52427 35.1453 4.02825 34.8485 4.31752L32.909 6.20803C32.7912 6.3229 32.7374 6.4884 32.7652 6.6506L33.2231 9.32003C33.2931 9.72849 32.8644 10.04 32.4976 9.84712L30.1003 8.58678C29.9546 8.51021 29.7806 8.51021 29.635 8.58678L27.2377 9.84712C26.8708 10.04 26.4421 9.72849 26.5122 9.32003L26.97 6.6506C26.9978 6.4884 26.9441 6.3229 26.8262 6.20803L24.8868 4.31752C24.59 4.02826 24.7538 3.52427 25.1639 3.46468L27.8441 3.07521C28.007 3.05155 28.1478 2.94926 28.2206 2.80169L29.4193 0.372956ZM41.4193 0.372956C41.6027 0.00133288 42.1326 0.00133225 42.316 0.372955L43.5147 2.80169C43.5875 2.94926 43.7283 3.05155 43.8911 3.07521L46.5714 3.46468C46.9815 3.52427 47.1453 4.02825 46.8485 4.31752L44.909 6.20803C44.7912 6.3229 44.7374 6.4884 44.7652 6.6506L45.2231 9.32003C45.2931 9.72849 44.8644 10.04 44.4976 9.84712L42.1003 8.58678C41.9546 8.51021 41.7806 8.51021 41.635 8.58678L39.2377 9.84712C38.8708 10.04 38.4421 9.72849 38.5122 9.32003L38.97 6.6506C38.9978 6.4884 38.9441 6.3229 38.8262 6.20803L36.8868 4.31752C36.59 4.02826 36.7538 3.52427 37.1639 3.46468L39.8441 3.07521C40.007 3.05155 40.1478 2.94926 40.2206 2.80169L41.4193 0.372956ZM53.4193 0.372956C53.6027 0.00133288 54.1326 0.00133225 54.316 0.372955L55.5147 2.80169C55.5875 2.94926 55.7283 3.05155 55.8911 3.07521L58.5714 3.46468C58.9815 3.52427 59.1453 4.02825 58.8485 4.31752L56.909 6.20803C56.7912 6.3229 56.7374 6.4884 56.7652 6.6506L57.2231 9.32003C57.2931 9.72849 56.8644 10.04 56.4976 9.84712L54.1003 8.58678C53.9546 8.51021 53.7806 8.51021 53.635 8.58678L51.2377 9.84712C50.8708 10.04 50.4421 9.72849 50.5122 9.32003L50.97 6.6506C50.9978 6.4884 50.9441 6.3229 50.8262 6.20803L48.8868 4.31752C48.59 4.02826 48.7538 3.52427 49.1639 3.46468L51.8441 3.07521C52.007 3.05155 52.1478 2.94926 52.2206 2.80169L53.4193 0.372956Z" fill="#FFC700"/>
<path d="M5.41927 0.372956C5.60267 0.00133288 6.1326 0.00133225 6.316 0.372955L7.51465 2.80169C7.58749 2.94926 7.72827 3.05155 7.89112 3.07521L10.5714 3.46468C10.9815 3.52427 11.1453 4.02825 10.8485 4.31752L8.90904 6.20803C8.79119 6.3229 8.73742 6.4884 8.76524 6.6506L9.22308 9.32003C9.29314 9.72849 8.86442 10.04 8.49761 9.84712L6.1003 8.58678C5.95464 8.51021 5.78062 8.51021 5.63496 8.58678L3.23766 9.84712C2.87085 10.04 2.44213 9.72849 2.51218 9.32003L2.97003 6.6506C2.99785 6.4884 2.94407 6.3229 2.82623 6.20803L0.88677 4.31752C0.590012 4.02826 0.753766 3.52427 1.16388 3.46468L3.84414 3.07521C4.007 3.05155 4.14778 2.94926 4.22061 2.80169L5.41927 0.372956ZM17.4193 0.372956C17.6027 0.00133288 18.1326 0.00133225 18.316 0.372955L19.5147 2.80169C19.5875 2.94926 19.7283 3.05155 19.8911 3.07521L22.5714 3.46468C22.9815 3.52427 23.1453 4.02825 22.8485 4.31752L20.909 6.20803C20.7912 6.3229 20.7374 6.4884 20.7652 6.6506L21.2231 9.32003C21.2931 9.72849 20.8644 10.04 20.4976 9.84712L18.1003 8.58678C17.9546 8.51021 17.7806 8.51021 17.635 8.58678L15.2377 9.84712C14.8708 10.04 14.4421 9.72849 14.5122 9.32003L14.97 6.6506C14.9978 6.4884 14.9441 6.3229 14.8262 6.20803L12.8868 4.31752C12.59 4.02826 12.7538 3.52427 13.1639 3.46468L15.8441 3.07521C16.007 3.05155 16.1478 2.94926 16.2206 2.80169L17.4193 0.372956ZM29.4193 0.372956C29.6027 0.00133288 30.1326 0.00133225 30.316 0.372955L31.5147 2.80169C31.5875 2.94926 31.7283 3.05155 31.8911 3.07521L34.5714 3.46468C34.9815 3.52427 35.1453 4.02825 34.8485 4.31752L32.909 6.20803C32.7912 6.3229 32.7374 6.4884 32.7652 6.6506L33.2231 9.32003C33.2931 9.72849 32.8644 10.04 32.4976 9.84712L30.1003 8.58678C29.9546 8.51021 29.7806 8.51021 29.635 8.58678L27.2377 9.84712C26.8708 10.04 26.4421 9.72849 26.5122 9.32003L26.97 6.6506C26.9978 6.4884 26.9441 6.3229 26.8262 6.20803L24.8868 4.31752C24.59 4.02826 24.7538 3.52427 25.1639 3.46468L27.8441 3.07521C28.007 3.05155 28.1478 2.94926 28.2206 2.80169L29.4193 0.372956ZM41.4193 0.372956C41.6027 0.00133288 42.1326 0.00133225 42.316 0.372955L43.5147 2.80169C43.5875 2.94926 43.7283 3.05155 43.8911 3.07521L46.5714 3.46468C46.9815 3.52427 47.1453 4.02825 46.8485 4.31752L44.909 6.20803C44.7912 6.3229 44.7374 6.4884 44.7652 6.6506L45.2231 9.32003C45.2931 9.72849 44.8644 10.04 44.4976 9.84712L42.1003 8.58678C41.9546 8.51021 41.7806 8.51021 41.635 8.58678L39.2377 9.84712C38.8708 10.04 38.4421 9.72849 38.5122 9.32003L38.97 6.6506C38.9978 6.4884 38.9441 6.3229 38.8262 6.20803L36.8868 4.31752C36.59 4.02826 36.7538 3.52427 37.1639 3.46468L39.8441 3.07521C40.007 3.05155 40.1478 2.94926 40.2206 2.80169L41.4193 0.372956ZM53.4193 0.372956C53.6027 0.00133288 54.1326 0.00133225 54.316 0.372955L55.5147 2.80169C55.5875 2.94926 55.7283 3.05155 55.8911 3.07521L58.5714 3.46468C58.9815 3.52427 59.1453 4.02825 58.8485 4.31752L56.909 6.20803C56.7912 6.3229 56.7374 6.4884 56.7652 6.6506L57.2231 9.32003C57.2931 9.72849 56.8644 10.04 56.4976 9.84712L54.1003 8.58678C53.9546 8.51021 53.7806 8.51021 53.635 8.58678L51.2377 9.84712C50.8708 10.04 50.4421 9.72849 50.5122 9.32003L50.97 6.6506C50.9978 6.4884 50.9441 6.3229 50.8262 6.20803L48.8868 4.31752C48.59 4.02826 48.7538 3.52427 49.1639 3.46468L51.8441 3.07521C52.007 3.05155 52.1478 2.94926 52.2206 2.80169L53.4193 0.372956Z" fill="#FFC700"/>
<path d="M5.41927 0.372956C5.60267 0.00133288 6.1326 0.00133225 6.316 0.372955L7.51465 2.80169C7.58749 2.94926 7.72827 3.05155 7.89112 3.07521L10.5714 3.46468C10.9815 3.52427 11.1453 4.02825 10.8485 4.31752L8.90904 6.20803C8.79119 6.3229 8.73742 6.4884 8.76524 6.6506L9.22308 9.32003C9.29314 9.72849 8.86442 10.04 8.49761 9.84712L6.1003 8.58678C5.95464 8.51021 5.78062 8.51021 5.63496 8.58678L3.23766 9.84712C2.87085 10.04 2.44213 9.72849 2.51218 9.32003L2.97003 6.6506C2.99785 6.4884 2.94407 6.3229 2.82623 6.20803L0.88677 4.31752C0.590012 4.02826 0.753766 3.52427 1.16388 3.46468L3.84414 3.07521C4.007 3.05155 4.14778 2.94926 4.22061 2.80169L5.41927 0.372956ZM17.4193 0.372956C17.6027 0.00133288 18.1326 0.00133225 18.316 0.372955L19.5147 2.80169C19.5875 2.94926 19.7283 3.05155 19.8911 3.07521L22.5714 3.46468C22.9815 3.52427 23.1453 4.02825 22.8485 4.31752L20.909 6.20803C20.7912 6.3229 20.7374 6.4884 20.7652 6.6506L21.2231 9.32003C21.2931 9.72849 20.8644 10.04 20.4976 9.84712L18.1003 8.58678C17.9546 8.51021 17.7806 8.51021 17.635 8.58678L15.2377 9.84712C14.8708 10.04 14.4421 9.72849 14.5122 9.32003L14.97 6.6506C14.9978 6.4884 14.9441 6.3229 14.8262 6.20803L12.8868 4.31752C12.59 4.02826 12.7538 3.52427 13.1639 3.46468L15.8441 3.07521C16.007 3.05155 16.1478 2.94926 16.2206 2.80169L17.4193 0.372956ZM29.4193 0.372956C29.6027 0.00133288 30.1326 0.00133225 30.316 0.372955L31.5147 2.80169C31.5875 2.94926 31.7283 3.05155 31.8911 3.07521L34.5714 3.46468C34.9815 3.52427 35.1453 4.02825 34.8485 4.31752L32.909 6.20803C32.7912 6.3229 32.7374 6.4884 32.7652 6.6506L33.2231 9.32003C33.2931 9.72849 32.8644 10.04 32.4976 9.84712L30.1003 8.58678C29.9546 8.51021 29.7806 8.51021 29.635 8.58678L27.2377 9.84712C26.8708 10.04 26.4421 9.72849 26.5122 9.32003L26.97 6.6506C26.9978 6.4884 26.9441 6.3229 26.8262 6.20803L24.8868 4.31752C24.59 4.02826 24.7538 3.52427 25.1639 3.46468L27.8441 3.07521C28.007 3.05155 28.1478 2.94926 28.2206 2.80169L29.4193 0.372956ZM41.4193 0.372956C41.6027 0.00133288 42.1326 0.00133225 42.316 0.372955L43.5147 2.80169C43.5875 2.94926 43.7283 3.05155 43.8911 3.07521L46.5714 3.46468C46.9815 3.52427 47.1453 4.02825 46.8485 4.31752L44.909 6.20803C44.7912 6.3229 44.7374 6.4884 44.7652 6.6506L45.2231 9.32003C45.2931 9.72849 44.8644 10.04 44.4976 9.84712L42.1003 8.58678C41.9546 8.51021 41.7806 8.51021 41.635 8.58678L39.2377 9.84712C38.8708 10.04 38.4421 9.72849 38.5122 9.32003L38.97 6.6506C38.9978 6.4884 38.9441 6.3229 38.8262 6.20803L36.8868 4.31752C36.59 4.02826 36.7538 3.52427 37.1639 3.46468L39.8441 3.07521C40.007 3.05155 40.1478 2.94926 40.2206 2.80169L41.4193 0.372956ZM53.4193 0.372956C53.6027 0.00133288 54.1326 0.00133225 54.316 0.372955L55.5147 2.80169C55.5875 2.94926 55.7283 3.05155 55.8911 3.07521L58.5714 3.46468C58.9815 3.52427 59.1453 4.02825 58.8485 4.31752L56.909 6.20803C56.7912 6.3229 56.7374 6.4884 56.7652 6.6506L57.2231 9.32003C57.2931 9.72849 56.8644 10.04 56.4976 9.84712L54.1003 8.58678C53.9546 8.51021 53.7806 8.51021 53.635 8.58678L51.2377 9.84712C50.8708 10.04 50.4421 9.72849 50.5122 9.32003L50.97 6.6506C50.9978 6.4884 50.9441 6.3229 50.8262 6.20803L48.8868 4.31752C48.59 4.02826 48.7538 3.52427 49.1639 3.46468L51.8441 3.07521C52.007 3.05155 52.1478 2.94926 52.2206 2.80169L53.4193 0.372956Z" fill="#FFC700"/>
<path d="M5.41927 0.372956C5.60267 0.00133288 6.1326 0.00133225 6.316 0.372955L7.51465 2.80169C7.58749 2.94926 7.72827 3.05155 7.89112 3.07521L10.5714 3.46468C10.9815 3.52427 11.1453 4.02825 10.8485 4.31752L8.90904 6.20803C8.79119 6.3229 8.73742 6.4884 8.76524 6.6506L9.22308 9.32003C9.29314 9.72849 8.86442 10.04 8.49761 9.84712L6.1003 8.58678C5.95464 8.51021 5.78062 8.51021 5.63496 8.58678L3.23766 9.84712C2.87085 10.04 2.44213 9.72849 2.51218 9.32003L2.97003 6.6506C2.99785 6.4884 2.94407 6.3229 2.82623 6.20803L0.88677 4.31752C0.590012 4.02826 0.753766 3.52427 1.16388 3.46468L3.84414 3.07521C4.007 3.05155 4.14778 2.94926 4.22061 2.80169L5.41927 0.372956ZM17.4193 0.372956C17.6027 0.00133288 18.1326 0.00133225 18.316 0.372955L19.5147 2.80169C19.5875 2.94926 19.7283 3.05155 19.8911 3.07521L22.5714 3.46468C22.9815 3.52427 23.1453 4.02825 22.8485 4.31752L20.909 6.20803C20.7912 6.3229 20.7374 6.4884 20.7652 6.6506L21.2231 9.32003C21.2931 9.72849 20.8644 10.04 20.4976 9.84712L18.1003 8.58678C17.9546 8.51021 17.7806 8.51021 17.635 8.58678L15.2377 9.84712C14.8708 10.04 14.4421 9.72849 14.5122 9.32003L14.97 6.6506C14.9978 6.4884 14.9441 6.3229 14.8262 6.20803L12.8868 4.31752C12.59 4.02826 12.7538 3.52427 13.1639 3.46468L15.8441 3.07521C16.007 3.05155 16.1478 2.94926 16.2206 2.80169L17.4193 0.372956ZM29.4193 0.372956C29.6027 0.00133288 30.1326 0.00133225 30.316 0.372955L31.5147 2.80169C31.5875 2.94926 31.7283 3.05155 31.8911 3.07521L34.5714 3.46468C34.9815 3.52427 35.1453 4.02825 34.8485 4.31752L32.909 6.20803C32.7912 6.3229 32.7374 6.4884 32.7652 6.6506L33.2231 9.32003C33.2931 9.72849 32.8644 10.04 32.4976 9.84712L30.1003 8.58678C29.9546 8.51021 29.7806 8.51021 29.635 8.58678L27.2377 9.84712C26.8708 10.04 26.4421 9.72849 26.5122 9.32003L26.97 6.6506C26.9978 6.4884 26.9441 6.3229 26.8262 6.20803L24.8868 4.31752C24.59 4.02826 24.7538 3.52427 25.1639 3.46468L27.8441 3.07521C28.007 3.05155 28.1478 2.94926 28.2206 2.80169L29.4193 0.372956ZM41.4193 0.372956C41.6027 0.00133288 42.1326 0.00133225 42.316 0.372955L43.5147 2.80169C43.5875 2.94926 43.7283 3.05155 43.8911 3.07521L46.5714 3.46468C46.9815 3.52427 47.1453 4.02825 46.8485 4.31752L44.909 6.20803C44.7912 6.3229 44.7374 6.4884 44.7652 6.6506L45.2231 9.32003C45.2931 9.72849 44.8644 10.04 44.4976 9.84712L42.1003 8.58678C41.9546 8.51021 41.7806 8.51021 41.635 8.58678L39.2377 9.84712C38.8708 10.04 38.4421 9.72849 38.5122 9.32003L38.97 6.6506C38.9978 6.4884 38.9441 6.3229 38.8262 6.20803L36.8868 4.31752C36.59 4.02826 36.7538 3.52427 37.1639 3.46468L39.8441 3.07521C40.007 3.05155 40.1478 2.94926 40.2206 2.80169L41.4193 0.372956ZM53.4193 0.372956C53.6027 0.00133288 54.1326 0.00133225 54.316 0.372955L55.5147 2.80169C55.5875 2.94926 55.7283 3.05155 55.8911 3.07521L58.5714 3.46468C58.9815 3.52427 59.1453 4.02825 58.8485 4.31752L56.909 6.20803C56.7912 6.3229 56.7374 6.4884 56.7652 6.6506L57.2231 9.32003C57.2931 9.72849 56.8644 10.04 56.4976 9.84712L54.1003 8.58678C53.9546 8.51021 53.7806 8.51021 53.635 8.58678L51.2377 9.84712C50.8708 10.04 50.4421 9.72849 50.5122 9.32003L50.97 6.6506C50.9978 6.4884 50.9441 6.3229 50.8262 6.20803L48.8868 4.31752C48.59 4.02826 48.7538 3.52427 49.1639 3.46468L51.8441 3.07521C52.007 3.05155 52.1478 2.94926 52.2206 2.80169L53.4193 0.372956Z" fill="#FFC700"/>
</svg>
