<svg width="20" height="20" viewBox="0 0 20 20" fill="none" xmlns="http://www.w3.org/2000/svg">
<path fill-rule="evenodd" clip-rule="evenodd" d="M14.1357 14.9974C12.8152 16.1215 11.1035 16.8 9.23335 16.8C5.0544 16.8 1.66669 13.4123 1.66669 9.23332C1.66669 5.05437 5.0544 1.66666 9.23335 1.66666C13.4123 1.66666 16.8 5.05437 16.8 9.23332C16.8 11.0921 16.1298 12.7944 15.0177 14.1116L18.6497 17.7437L17.7658 18.6275L14.1357 14.9974ZM15.55 9.23332C15.55 12.7219 12.722 15.55 9.23335 15.55C5.74475 15.55 2.91669 12.7219 2.91669 9.23332C2.91669 5.74472 5.74475 2.91666 9.23335 2.91666C12.722 2.91666 15.55 5.74472 15.55 9.23332Z" fill="black" fill-opacity="0.7"/>
</svg>
